<svg width="134" height="179" viewBox="0 0 134 179" fill="none" xmlns="http://www.w3.org/2000/svg">
<path d="M38.7705 137.195C43.3072 143.517 58.8376 165.589 61.8288 169.426C62.44 170.223 63.2411 170.872 64.1668 171.319C65.0924 171.767 66.1164 172 67.155 172C68.1936 172 69.2176 171.767 70.1432 171.319C71.0689 170.872 71.87 170.223 72.4812 169.426C87.2067 150.545 127.31 95.8783 127.31 61.3416C127.31 31.3506 100.366 7 67.155 7C33.9444 7 7 31.3506 7 61.3416C7 69.2926 9.12891 78.3147 12.5858 87.7233" stroke="#932F6D" stroke-width="12.7133" stroke-linecap="round" stroke-linejoin="round"/>
<path d="M78.3986 22.5999C67.2488 27.0999 44.4393 47.1399 52.5991 79.2999C57.6192 84.2868 65.8706 89.4329 68.6488 94.4499C74.24 100.95 84.4585 110.05 97.2982 94.4499C101.598 85.4499 107.948 64.4499 87.5484 64.4499L68.6488 67.8999L83.4985 61.2999C85.7984 55.0999 89.5284 41.7999 86.0484 38.1999C86.2984 32.9999 85.1185 22.5999 78.3986 22.5999Z" fill="#932F6D"/>
<path d="M18.6722 85.5669C17.47 82.2685 13.8215 80.5692 10.5231 81.7715C7.22468 82.9737 5.52541 86.6222 6.72766 89.9206L18.6722 85.5669ZM69.5488 127.044L66.9572 121.239L64.1688 122.484L63.398 125.439L69.5488 127.044ZM52.5991 79.2999L46.4377 80.8632C46.7209 81.9796 47.3021 82.998 48.1192 83.8096L52.5991 79.2999ZM78.3986 22.5999V16.2433H77.1642L76.0195 16.7052L78.3986 22.5999ZM86.0484 38.1999L79.6991 37.8947L79.5671 40.641L81.478 42.6179L86.0484 38.1999ZM83.4985 61.2999L86.0802 67.1087L88.527 66.0212L89.4583 63.5108L83.4985 61.2999ZM68.6488 67.8999L66.0671 62.0912L69.7903 74.1532L68.6488 67.8999ZM87.5484 64.4499V58.0933H86.973L86.4069 58.1966L87.5484 64.4499ZM97.2982 94.4499L102.206 98.4895L102.699 97.8904L103.034 97.1902L97.2982 94.4499ZM6.72766 89.9206C13.7418 109.164 29.4069 120.726 42.8025 127.035C49.5463 130.211 55.9513 132.174 60.8497 133.156C63.267 133.641 65.5126 133.926 67.3505 133.941C68.2192 133.948 69.3478 133.9 70.4696 133.619C71.0225 133.48 71.9083 133.204 72.8224 132.609C73.7578 132 75.1486 130.76 75.6996 128.648L63.398 125.439C63.9019 123.507 65.1619 122.426 65.8872 121.954C66.5913 121.496 67.1878 121.335 67.3766 121.287C67.7703 121.189 67.8718 121.231 67.4508 121.228C66.7091 121.222 65.3241 121.087 63.3492 120.691C59.4631 119.911 54.0373 118.273 48.2192 115.533C36.4909 110.01 24.1079 100.48 18.6722 85.5669L6.72766 89.9206ZM58.7605 77.7366C55.1547 63.5252 58.3852 52.2555 63.6278 43.9789C69.0166 35.4715 76.4775 30.2301 80.7776 28.4946L76.0195 16.7052C69.1699 19.4697 59.6512 26.4983 52.8878 37.1759C45.9781 48.0843 41.8837 62.9147 46.4377 80.8632L58.7605 77.7366ZM78.3986 28.9566C78.4061 28.9566 78.3761 28.957 78.3179 28.9451C78.2592 28.9331 78.1921 28.9125 78.1243 28.883C77.98 28.82 77.9267 28.7583 77.9594 28.7913C78.0805 28.9128 78.4423 29.3873 78.8182 30.494C79.5788 32.7337 79.8013 35.7694 79.6991 37.8947L92.3978 38.5052C92.5456 35.4304 92.3031 30.6661 90.8562 26.4058C89.4946 22.3965 86.0031 16.2433 78.3986 16.2433V28.9566ZM81.478 42.6179C80.7108 41.8242 81.0143 41.3766 81.0948 42.8121C81.1606 43.9849 81.0297 45.649 80.6768 47.6942C79.9772 51.7495 78.5977 56.2343 77.5387 59.0891L89.4583 63.5108C90.6992 60.1655 92.3347 54.9003 93.205 49.8556C93.6372 47.3509 93.9299 44.6275 93.7882 42.1002C93.6612 39.8358 93.126 36.3757 90.6188 33.7819L81.478 42.6179ZM80.9168 55.4912L66.0671 62.0912L71.2305 73.7087L86.0802 67.1087L80.9168 55.4912ZM87.5484 70.8066C91.5884 70.8066 93.2262 71.8319 93.8897 72.4663C94.5778 73.1243 95.1964 74.2983 95.343 76.4977C95.6574 81.2137 93.5725 87.5026 91.5625 91.7096L103.034 97.1902C105.324 92.3972 108.564 83.6862 108.028 75.6521C107.75 71.4765 106.4 66.8381 102.675 63.2773C98.9265 59.6929 93.7081 58.0933 87.5484 58.0933V70.8066ZM72.1404 132.848C75.1077 131.523 77.0879 128.895 78.3104 126.442C79.613 123.829 80.4531 120.651 80.731 117.122C81.2906 110.016 79.6088 101.12 74.2098 91.3705L63.0878 97.5293C67.4453 105.398 68.3954 111.826 68.0569 116.124C67.8857 118.298 67.3943 119.844 66.932 120.771C66.3897 121.859 66.1718 121.59 66.9572 121.239L72.1404 132.848ZM74.2098 91.3705C72.1649 87.6778 68.4817 84.4422 65.5394 81.9848C62.1704 79.171 59.3306 77.0269 57.079 74.7902L48.1192 83.8096C50.8877 86.5598 54.6836 89.4822 57.3899 91.7425C60.5229 94.3592 62.3545 96.2051 63.0878 97.5293L74.2098 91.3705ZM92.3902 90.4103C86.9403 97.0318 83.4481 96.9564 81.7044 96.5481C79.0012 95.9153 76.2035 93.485 73.4679 90.3046L63.8297 98.5952C66.6852 101.915 71.7924 107.285 78.8062 108.927C86.7794 110.793 94.8164 107.468 102.206 98.4895L92.3902 90.4103ZM86.4069 58.1966L67.5073 61.6466L69.7903 74.1532L88.6899 70.7032L86.4069 58.1966Z" fill="#932F6D"/>
<path d="M82.4918 92.8318C78.7118 90.9103 77.5562 85.479 80.0033 80.6647C82.4504 75.8504 87.5191 73.583 91.2992 75.5045C95.0792 77.4259 96.2348 82.8572 93.7877 87.6715C91.3406 92.4859 86.2719 94.7532 82.4918 92.8318Z" fill="#BFD0B5" stroke="#932F6D" stroke-width="0.299221"/>
<path d="M76.9353 32.0623C74.9354 31.2623 69.4055 33.0223 63.2856 46.4623C60.8857 51.6623 57.1657 62.8422 61.4856 65.9622C62.0856 66.4122 63.7956 66.9522 65.8356 65.5122C66.9355 64.7122 69.4955 62.6322 70.9355 60.7122C70.6355 61.6622 70.2155 63.8022 70.9355 64.7622C71.3354 65.4122 72.7054 66.0822 74.9854 63.5622C76.1353 62.2122 78.7953 58.5822 80.2353 54.8622C81.2852 51.8122 82.9952 45.4122 81.4352 44.2122C81.1852 43.8122 80.2353 43.4022 78.4353 44.9622C79.4353 41.3122 80.5353 33.2622 76.9353 32.0623Z" fill="#BFD0B5" stroke="#932F6D" stroke-width="0.299221"/>
</svg>
