<svg width="252" height="340" viewBox="0 0 252 340" fill="none" xmlns="http://www.w3.org/2000/svg">
<path d="M70.314 263.357C79.2121 275.756 109.673 319.047 115.54 326.572C116.739 328.136 118.31 329.408 120.126 330.286C121.941 331.163 123.949 331.62 125.987 331.62C128.024 331.62 130.032 331.163 131.848 330.286C133.663 329.408 135.234 328.136 136.433 326.572C165.316 289.54 243.973 182.32 243.973 114.582C243.973 55.7597 191.125 8 125.987 8C60.8482 8 8 55.7597 8 114.582C8 130.177 12.1756 147.872 18.9559 166.326" stroke="#932F6D" stroke-width="15" stroke-linecap="round" stroke-linejoin="round"/>
<path d="M148.039 38.5967C126.171 47.4227 81.4325 86.7279 97.437 149.804C107.283 159.585 123.467 169.679 128.916 179.519C139.883 192.267 159.925 210.116 185.109 179.519C193.542 161.867 205.997 120.679 165.986 120.679L128.916 127.445L158.042 114.5C162.553 102.34 169.869 76.2543 163.044 69.1935C163.534 58.9946 161.22 38.5967 148.039 38.5967Z" fill="#932F6D"/>
<path d="M26.2262 163.797C24.8077 159.906 20.5029 157.901 16.6112 159.319C12.7196 160.738 10.7147 165.042 12.1332 168.934L26.2262 163.797ZM130.682 243.446L127.624 236.598L124.334 238.067L123.425 241.553L130.682 243.446ZM97.437 149.804L90.1674 151.649C90.5016 152.966 91.1873 154.168 92.1514 155.125L97.437 149.804ZM148.039 38.5967V31.0967H146.583L145.233 31.6417L148.039 38.5967ZM163.044 69.1935L155.552 68.8334L155.397 72.0737L157.651 74.4062L163.044 69.1935ZM158.042 114.5L161.088 121.354L163.975 120.071L165.074 117.109L158.042 114.5ZM128.916 127.445L125.87 120.592L130.263 134.823L128.916 127.445ZM165.986 120.679V113.179H165.307L164.639 113.301L165.986 120.679ZM185.109 179.519L190.899 184.285L191.481 183.578L191.876 182.752L185.109 179.519ZM12.1332 168.934C25.2737 204.985 54.7165 226.868 80.3387 238.935C93.2042 244.994 105.384 248.716 114.596 250.564C119.165 251.48 123.233 251.981 126.409 252.006C127.938 252.018 129.671 251.927 131.279 251.524C132.074 251.324 133.232 250.954 134.393 250.199C135.578 249.427 137.27 247.902 137.939 245.339L123.425 241.553C124.001 239.344 125.436 238.131 126.21 237.627C126.959 237.14 127.549 236.994 127.63 236.974C127.81 236.929 127.528 237.014 126.527 237.006C124.644 236.992 121.592 236.668 117.545 235.856C109.528 234.249 98.5028 230.909 86.7296 225.364C63.0745 214.224 37.5043 194.738 26.2262 163.797L12.1332 168.934ZM104.707 147.96C97.2638 118.626 103.937 95.1315 114.872 77.87C125.978 60.3361 141.416 49.3576 150.846 45.5516L145.233 31.6417C132.794 36.6617 114.928 49.7489 102.2 69.8433C89.2988 90.21 81.6057 117.906 90.1674 151.649L104.707 147.96ZM148.039 46.0967C149.622 46.0967 151.706 47.0039 153.566 52.4823C155.326 57.6646 155.771 64.294 155.552 68.8334L170.535 69.5537C170.807 63.8941 170.339 55.225 167.77 47.6587C165.301 40.3884 159.638 31.0967 148.039 31.0967V46.0967ZM157.651 74.4062C157.426 74.173 158.112 74.822 158.288 77.9614C158.447 80.7908 158.126 84.4686 157.403 88.6595C155.964 97 153.159 106.101 151.011 111.892L165.074 117.109C167.437 110.739 170.545 100.718 172.185 91.2098C173.002 86.4766 173.513 81.549 173.264 77.1215C173.033 73.004 172.074 67.7444 168.436 63.9809L157.651 74.4062ZM154.996 107.647L125.87 120.592L131.963 134.299L161.088 121.354L154.996 107.647ZM165.986 128.179C174.738 128.179 179.349 130.414 181.856 132.811C184.393 135.236 185.892 138.892 186.231 143.978C186.934 154.524 182.393 167.805 178.341 176.285L191.876 182.752C196.258 173.58 202.162 157.441 201.197 142.98C200.703 135.563 198.341 127.819 192.222 121.969C186.075 116.092 177.239 113.179 165.986 113.179V128.179ZM133.739 250.295C138.093 248.351 141.288 244.328 143.42 240.05C145.647 235.583 147.158 229.988 147.662 223.597C148.673 210.756 145.66 194.273 135.478 175.885L122.355 183.152C131.309 199.321 133.458 212.891 132.708 222.419C132.331 227.213 131.23 230.881 129.995 233.359C128.666 236.027 127.55 236.631 127.624 236.598L133.739 250.295ZM135.478 175.885C131.979 169.568 125.479 163.765 119.633 158.883C113.284 153.581 107.341 149.071 102.723 144.484L92.1514 155.125C97.3794 160.319 104.451 165.746 110.018 170.396C116.089 175.466 120.405 179.629 122.355 183.152L135.478 175.885ZM179.318 174.752C167.871 188.66 159.245 189.841 153.391 188.471C146.404 186.835 140.015 180.92 134.602 174.628L123.231 184.41C128.785 190.866 137.899 200.249 149.972 203.076C163.176 206.167 177.163 200.974 190.899 184.285L179.318 174.752ZM164.639 113.301L127.57 120.067L130.263 134.823L167.333 128.057L164.639 113.301Z" fill="#932F6D"/>
<path d="M145.169 57.1555C141.247 55.5864 130.401 59.0384 118.397 85.3988C113.69 95.5977 106.394 117.525 114.867 123.645C116.044 124.527 119.397 125.586 123.399 122.762C125.556 121.193 130.577 117.114 133.401 113.348C132.813 115.211 131.989 119.408 133.401 121.291C134.186 122.566 136.873 123.88 141.345 118.938C143.6 116.29 148.817 109.17 151.642 101.874C153.701 95.8919 157.055 83.3393 153.995 80.9857C153.505 80.2012 151.642 79.397 148.111 82.4567C150.073 75.2978 152.23 59.5091 145.169 57.1555Z" fill="#BFD0B5" stroke="#932F6D" stroke-width="0.588401"/>
<path d="M156.068 176.344C148.655 172.576 146.388 161.924 151.188 152.482C155.987 143.039 165.929 138.593 173.342 142.361C180.756 146.129 183.022 156.781 178.223 166.224C173.423 175.666 163.482 180.113 156.068 176.344Z" fill="#BFD0B5" stroke="#932F6D" stroke-width="0.588401"/>
</svg>
