<svg width="134" height="179" viewBox="0 0 134 179" fill="none" xmlns="http://www.w3.org/2000/svg">
<path d="M38.7712 137.195C43.308 143.517 58.8386 165.589 61.8299 169.426C62.4412 170.223 63.2423 170.872 64.168 171.319C65.0936 171.767 66.1176 172 67.1562 172C68.1949 172 69.2189 171.767 70.1445 171.319C71.0702 170.872 71.8713 170.223 72.4826 169.426C87.2083 150.545 127.312 95.8783 127.312 61.3416C127.312 31.3506 100.368 7 67.1562 7C33.945 7 7 31.3506 7 61.3416C7 69.2926 9.12895 78.3147 12.5859 87.7233" stroke="#BFD0B5" stroke-width="12.7464" stroke-linecap="round" stroke-linejoin="round"/>
<path d="M78.4001 22.5999C67.2501 27.0999 44.4401 47.1399 52.6001 79.2999C57.6202 84.2868 65.8718 89.4329 68.6501 94.4499C74.2414 100.95 84.4601 110.05 97.3001 94.4499C101.6 85.4499 107.95 64.4499 87.5501 64.4499L68.6501 67.8999L83.5001 61.2999C85.8001 55.0999 89.5301 41.7999 86.0501 38.1999C86.3001 32.9999 85.1201 22.5999 78.4001 22.5999Z" fill="#BFD0B5"/>
<path d="M18.6879 85.5612C17.4825 82.2542 13.8245 80.5505 10.5175 81.7559C7.21051 82.9613 5.50684 86.6193 6.71224 89.9263L18.6879 85.5612ZM69.5501 127.044L66.9518 121.224L64.1561 122.472L63.3833 125.435L69.5501 127.044ZM52.6001 79.2999L46.4226 80.8673C46.7066 81.9866 47.2893 83.0076 48.1085 83.8214L52.6001 79.2999ZM78.4001 22.5999V16.2267H77.1625L76.0149 16.6899L78.4001 22.5999ZM86.0501 38.1999L79.6842 37.8939L79.5518 40.6474L81.4678 42.6294L86.0501 38.1999ZM83.5001 61.2999L86.0885 67.1238L88.5417 66.0335L89.4754 63.5166L83.5001 61.2999ZM68.6501 67.8999L66.0617 62.076L69.7945 74.1695L68.6501 67.8999ZM87.5501 64.4499V58.0767H86.9732L86.4056 58.1803L87.5501 64.4499ZM97.3001 94.4499L102.221 98.5001L102.715 97.8994L103.051 97.1974L97.3001 94.4499ZM68.6501 94.4499L63.0747 97.5374L68.6501 94.4499ZM6.71224 89.9263C13.7285 109.175 29.3983 120.74 42.7963 127.05C49.5414 130.226 55.9478 132.19 60.8476 133.172C63.2655 133.657 65.5122 133.943 67.3516 133.957C68.2209 133.964 69.3512 133.917 70.4749 133.635C71.0287 133.496 71.9165 133.22 72.8327 132.623C73.7703 132.013 75.1645 130.77 75.7169 128.653L63.3833 125.435C63.8886 123.498 65.1521 122.414 65.8795 121.94C66.5857 121.481 67.1841 121.319 67.3739 121.271C67.7695 121.172 67.8727 121.215 67.4522 121.211C66.7119 121.205 65.3279 121.07 63.3535 120.674C59.4687 119.896 54.044 118.258 48.227 115.518C36.5006 109.996 24.1216 100.468 18.6879 85.5612L6.71224 89.9263ZM58.7775 77.7325C55.1729 63.526 58.4022 52.261 63.6428 43.9878C69.0299 35.4832 76.4883 30.2442 80.7853 28.5099L76.0149 16.6899C69.1619 19.4557 59.6403 26.4866 52.8749 37.167C45.9629 48.0789 41.8673 62.9139 46.4226 80.8673L58.7775 77.7325ZM78.4001 28.9731C78.4066 28.9731 78.3754 28.9735 78.3161 28.9613C78.2563 28.949 78.1881 28.9282 78.1193 28.8982C77.9729 28.8343 77.9178 28.7714 77.9493 28.803C78.0679 28.9221 78.4287 29.394 78.8041 30.4994C79.5639 32.7365 79.7863 35.7698 79.6842 37.8939L92.4159 38.506C92.5638 35.43 92.3213 30.6634 90.8735 26.4004C89.5112 22.3891 86.0156 16.2267 78.4001 16.2267V28.9731ZM81.4678 42.6294C80.6963 41.8313 80.9995 41.3786 81.08 42.813C81.1457 43.984 81.0149 45.6467 80.6622 47.6914C79.9627 51.7454 78.5836 56.2292 77.5248 59.0833L89.4754 63.5166C90.7166 60.1707 92.3524 54.9044 93.223 49.8585C93.6552 47.3531 93.9482 44.6283 93.8064 42.0993C93.6794 39.8337 93.1439 36.3685 90.6323 33.7704L81.4678 42.6294ZM80.9117 55.476L66.0617 62.076L71.2385 73.7238L86.0885 67.1238L80.9117 55.476ZM87.5501 70.8231C91.5875 70.8231 93.2206 71.8477 93.8802 72.4783C94.5644 73.1325 95.182 74.302 95.3285 76.4989C95.6426 81.2104 93.5592 87.4962 91.5495 91.7024L103.051 97.1974C105.341 92.4036 108.583 83.6894 108.047 75.651C107.768 71.4728 106.417 66.8298 102.689 63.2653C98.9358 59.6771 93.7127 58.0767 87.5501 58.0767V70.8231ZM72.1484 132.863C75.1206 131.536 77.1031 128.904 78.3266 126.449C79.6303 123.834 80.4709 120.654 80.7489 117.124C81.3088 110.013 79.626 101.115 74.2255 91.3624L63.0747 97.5374C67.4308 105.404 68.38 111.828 68.0418 116.123C67.8707 118.295 67.3797 119.838 66.9186 120.764C66.3772 121.85 66.1616 121.577 66.9518 121.224L72.1484 132.863ZM74.2255 91.3624C72.1789 87.6666 68.4932 84.4292 65.5511 81.972C62.1812 79.1576 59.3426 77.0145 57.0916 74.7784L48.1085 83.8214C50.8777 86.5723 54.675 89.4957 57.3804 91.7552C60.5138 94.3721 62.343 96.2162 63.0747 97.5374L74.2255 91.3624ZM92.3793 90.3998C86.9319 97.0182 83.4455 96.9384 81.7096 96.532C79.0119 95.9004 76.2172 93.4739 73.4817 90.2938L63.8185 98.6061C66.6742 101.926 71.7845 107.299 78.804 108.943C86.7854 110.811 94.8283 107.482 102.221 98.5001L92.3793 90.3998ZM86.4056 58.1803L67.5056 61.6303L69.7945 74.1695L88.6945 70.7195L86.4056 58.1803Z" fill="#BFD0B5"/>
<path d="M82.4938 92.8315C78.7139 90.9101 77.5583 85.4791 80.0053 80.6649C82.4524 75.8507 87.5211 73.5835 91.301 75.5048C95.0808 77.4262 96.2365 82.8572 93.7894 87.6714C91.3423 92.4856 86.2736 94.7528 82.4938 92.8315Z" fill="#932F6D" stroke="#BFD0B5" stroke-width="0.3"/>
<path d="M76.9367 32.0622C74.9367 31.2622 69.4067 33.0222 63.2867 46.4622C60.8867 51.6622 57.1667 62.8422 61.4867 65.9622C62.0867 66.4122 63.7967 66.9522 65.8367 65.5122C66.9367 64.7122 69.4967 62.6322 70.9367 60.7122C70.6367 61.6622 70.2167 63.8022 70.9367 64.7622C71.3367 65.4122 72.7067 66.0822 74.9867 63.5622C76.1367 62.2122 78.7967 58.5822 80.2367 54.8622C81.2867 51.8122 82.9967 45.4122 81.4367 44.2122C81.1867 43.8122 80.2367 43.4022 78.4367 44.9622C79.4367 41.3122 80.5367 33.2622 76.9367 32.0622Z" fill="#932F6D" stroke="#BFD0B5" stroke-width="0.3"/>
</svg>
