<svg width="40" height="40" viewBox="0 0 40 40" fill="none" xmlns="http://www.w3.org/2000/svg">
    <rect width="40" height="40" rx="20" fill="#1D48A1"/>
    <path fill-rule="evenodd" clip-rule="evenodd"
          d="M33.25 20.125C33.25 12.877 27.373 7 20.125 7C12.877 7 7 12.877 7 20.125C7 26.6758 11.7988 32.1057 18.0742 33.0912V23.9201H14.7408V20.125H18.0742V17.2334C18.0742 13.9445 20.0342 12.1264 23.0318 12.1264C24.468 12.1264 25.9703 12.383 25.9703 12.383V15.6133H24.3145C22.685 15.6133 22.1752 16.6246 22.1752 17.6641V20.125H25.815L25.2338 23.9201H22.1758V33.0924C28.4512 32.1074 33.25 26.6775 33.25 20.125Z"
          fill="#FDFFFC"/>
</svg>
