<svg width="40" height="40" viewBox="0 0 40 40" fill="none" xmlns="http://www.w3.org/2000/svg">
<rect width="40" height="40" rx="20" fill="#FDFFFC"/>
<path fill-rule="evenodd" clip-rule="evenodd" d="M33 20.0785C33 12.8561 27.179 7 20 7C12.821 7 7 12.8561 7 20.0785C7 26.6061 11.7531 32.0168 17.9687 32.9988V23.8602H14.6671V20.0785H17.9687V17.1972C17.9687 13.9199 19.91 12.1082 22.8792 12.1082C24.3016 12.1082 25.7896 12.3639 25.7896 12.3639V15.5828H24.1496C22.5356 15.5828 22.0307 16.5905 22.0307 17.6263V20.0785H25.6358L25.0601 23.8602H22.0312V33C28.2469 32.0185 33 26.6079 33 20.0785Z" fill="#1D48A1"/>
</svg>
