<svg width="40" height="40" viewBox="0 0 40 40" fill="none" xmlns="http://www.w3.org/2000/svg">
<rect width="40" height="40" rx="20" fill="#FDFFFC"/>
<g clip-path="url(#clip0_310_654)">
<path fill-rule="evenodd" clip-rule="evenodd" d="M32.7482 20.0911C32.7482 19.1834 32.6646 18.3107 32.5094 17.4729H20.1368V22.4241H27.2068C26.9023 24.0241 25.9767 25.3797 24.5855 26.2875V29.499H28.831C31.3152 27.2708 32.7482 23.9892 32.7482 20.0911Z" fill="#4285F4"/>
<path fill-rule="evenodd" clip-rule="evenodd" d="M20.1369 32.6C23.6838 32.6 26.6576 31.4539 28.831 29.4988L24.5855 26.2873C23.4092 27.0553 21.9044 27.5092 20.1369 27.5092C16.7154 27.5092 13.8193 25.2574 12.7862 22.232H8.39734V25.5483C10.559 29.7316 15.0016 32.6 20.1369 32.6Z" fill="#34A853"/>
<path fill-rule="evenodd" clip-rule="evenodd" d="M12.7862 22.232C12.5234 21.464 12.3742 20.6437 12.3742 19.8C12.3742 18.9564 12.5234 18.136 12.7862 17.368V14.0516H8.39728C7.50756 15.7796 7 17.7346 7 19.8C7 21.8655 7.50756 23.8204 8.39728 25.5484L12.7862 22.232Z" fill="#FBBC05"/>
<path fill-rule="evenodd" clip-rule="evenodd" d="M20.1369 12.0909C22.0656 12.0909 23.7973 12.7367 25.1587 14.0051L28.9266 10.3338C26.6516 8.26836 23.6779 7 20.1369 7C15.0016 7 10.559 9.86836 8.39734 14.0516L12.7862 17.368C13.8193 14.3425 16.7154 12.0909 20.1369 12.0909Z" fill="#EA4335"/>
</g>
<defs>
<clipPath id="clip0_310_654">
<rect width="26" height="26" fill="white" transform="translate(7 7)"/>
</clipPath>
</defs>
</svg>
