<svg width="40" height="40" viewBox="0 0 15 15" fill="none" xmlns="http://www.w3.org/2000/svg">
    <path fill-rule="evenodd" clip-rule="evenodd"
          d="M14.112 7.36372C14.112 6.85317 14.0662 6.36226 13.9811 5.89099H7.20001V8.67608H11.0749C10.908 9.57608 10.4007 10.3386 9.63819 10.8492V12.6557H11.9651C13.3266 11.4023 14.112 9.55645 14.112 7.36372Z"
          fill="#4285F4"/>
    <path fill-rule="evenodd" clip-rule="evenodd"
          d="M7.20005 14.4C9.14405 14.4 10.7739 13.7553 11.9651 12.6556L9.63823 10.8491C8.9935 11.2811 8.16878 11.5364 7.20005 11.5364C5.32478 11.5364 3.7375 10.2698 3.17132 8.56799H0.765869V10.4334C1.9506 12.7865 4.3855 14.4 7.20005 14.4Z"
          fill="#34A853"/>
    <path fill-rule="evenodd" clip-rule="evenodd"
          d="M3.17127 8.56801C3.02727 8.13601 2.94545 7.67456 2.94545 7.20001C2.94545 6.72546 3.02727 6.26401 3.17127 5.83201V3.96655H0.765818C0.278182 4.93855 0 6.03819 0 7.20001C0 8.36183 0.278182 9.46147 0.765818 10.4335L3.17127 8.56801Z"
          fill="#FBBC05"/>
    <path fill-rule="evenodd" clip-rule="evenodd"
          d="M7.20005 2.86364C8.25714 2.86364 9.20623 3.22691 9.95241 3.94036L12.0175 1.87527C10.7706 0.713454 9.14078 0 7.20005 0C4.3855 0 1.9506 1.61345 0.765869 3.96654L3.17132 5.832C3.7375 4.13018 5.32478 2.86364 7.20005 2.86364Z"
          fill="#EA4335"/>
</svg>
