<svg width="31" height="31" viewBox="0 0 31 31" fill="none" xmlns="http://www.w3.org/2000/svg">
<path d="M15.5 0.916687C7.46314 0.916687 0.916687 7.46314 0.916687 15.5C0.916687 23.5369 7.46314 30.0834 15.5 30.0834C23.5369 30.0834 30.0834 23.5369 30.0834 15.5C30.0834 7.46314 23.5369 0.916687 15.5 0.916687ZM15.5 3.83335C21.9606 3.83335 27.1667 9.03942 27.1667 15.5C27.1667 21.9606 21.9606 27.1667 15.5 27.1667C9.03942 27.1667 3.83335 21.9606 3.83335 15.5C3.83335 9.03942 9.03942 3.83335 15.5 3.83335ZM14.0417 8.20835V14.0417H8.20835V16.9584H14.0417V22.7917H16.9584V16.9584H22.7917V14.0417H16.9584V8.20835H14.0417Z" fill="#BFD0B5"/>
</svg>
