<svg width="24" height="17" viewBox="0 0 24 17" fill="none" xmlns="http://www.w3.org/2000/svg">
<path d="M4.10114 12.3656C4.15692 12.2231 4.03364 12.0249 3.91598 11.882C3.87935 11.8394 3.83961 11.7982 3.79692 11.7584C2.78783 10.696 2.24998 9.45141 2.25005 8.17886C2.23364 4.52613 6.59676 1.56197 11.9921 1.56197C16.6974 1.56197 20.625 3.82487 21.5429 6.82873C21.6804 7.27409 21.7498 7.72827 21.75 8.18374C21.75 11.8417 17.5552 14.8524 12.1599 14.8524C11.3021 14.8524 10.1443 14.7027 9.51286 14.58C8.88145 14.4573 8.25098 14.2946 8.08833 14.251C7.92197 14.2066 7.7453 14.1838 7.56708 14.1837C7.37241 14.1831 7.17962 14.21 7.00036 14.2627L3.82083 15.0593C3.75117 15.0802 3.67736 15.0936 3.60192 15.099C3.54239 15.0989 3.48348 15.0906 3.42862 15.0745C3.37375 15.0585 3.32402 15.0351 3.28229 15.0056C3.24057 14.9761 3.20769 14.9412 3.18555 14.9028C3.16341 14.8644 3.15246 14.8234 3.15333 14.7821C3.15724 14.7458 3.16667 14.7099 3.18145 14.675L4.10114 12.3656Z" stroke="#BFD0B5" stroke-width="1.46667" stroke-miterlimit="10" stroke-linecap="round"/>
</svg>
