<svg width="25" height="25" viewBox="0 0 25 25" fill="none" xmlns="http://www.w3.org/2000/svg">
<path d="M22.6563 12.2036C22.6497 12.0818 22.6002 11.9662 22.5165 11.8774C22.4329 11.7885 22.3205 11.7322 22.1992 11.7183L20.9473 11.5156C20.891 11.5064 20.8391 11.4792 20.7995 11.4381C20.7599 11.397 20.7347 11.3442 20.7275 11.2876C20.7036 11.1338 20.6787 10.9741 20.6445 10.8228C20.6335 10.7677 20.64 10.7106 20.663 10.6594C20.686 10.6082 20.7245 10.5654 20.773 10.5371L21.8853 9.91944C21.9957 9.86314 22.0816 9.7682 22.1266 9.65269C22.1716 9.53719 22.1726 9.40916 22.1294 9.29297L21.9365 8.76075C21.8942 8.64416 21.8104 8.54727 21.7011 8.48862C21.5919 8.42997 21.4648 8.41368 21.3442 8.44287L20.0967 8.68702C20.0409 8.69699 19.9834 8.68909 19.9324 8.66445C19.8813 8.63981 19.8394 8.59969 19.8125 8.54981C19.7398 8.41358 19.6607 8.27491 19.5781 8.13867C19.5482 8.09014 19.5341 8.03345 19.538 7.97654C19.5418 7.91963 19.5634 7.86534 19.5996 7.82129L20.4297 6.86231C20.514 6.77178 20.5625 6.65363 20.566 6.52996C20.5695 6.4063 20.5278 6.28559 20.4487 6.19043L20.0864 5.75537C20.0076 5.65988 19.8962 5.59704 19.7737 5.57899C19.6512 5.56095 19.5264 5.58901 19.4233 5.65772L18.3311 6.31348C18.2826 6.3425 18.2262 6.35517 18.17 6.34963C18.1138 6.34409 18.0609 6.32063 18.0191 6.28272C17.8984 6.17676 17.7749 6.07471 17.6592 5.98047C17.6148 5.94542 17.5827 5.89713 17.5676 5.8426C17.5525 5.78808 17.5552 5.73015 17.5752 5.67725L18.0274 4.48584C18.0766 4.37216 18.0824 4.24436 18.0436 4.12671C18.0048 4.00905 17.9241 3.90975 17.8169 3.84766L17.3242 3.56006C17.2169 3.4982 17.0906 3.47809 16.9694 3.50359C16.8483 3.52909 16.7407 3.5984 16.6675 3.69825L15.8691 4.70117C15.8404 4.74477 15.7974 4.777 15.7475 4.79232C15.6976 4.80765 15.6439 4.80512 15.5957 4.78516C15.5659 4.77295 15.314 4.66992 15.1182 4.6045C15.0645 4.58699 15.0178 4.55276 14.9849 4.50681C14.952 4.46086 14.9348 4.40561 14.9356 4.34912L14.9546 3.07617C14.9614 2.95188 14.9227 2.82936 14.8456 2.73157C14.7686 2.63378 14.6586 2.56743 14.5361 2.54492L13.9771 2.44727C13.8552 2.42622 13.7299 2.45012 13.6244 2.51451C13.5189 2.5789 13.4403 2.67941 13.4033 2.79737L12.9883 4.00879C12.9694 4.06257 12.9339 4.10889 12.8868 4.14097C12.8397 4.17304 12.7835 4.18918 12.7266 4.18701H12.2505C12.194 4.18818 12.1386 4.17148 12.0921 4.13931C12.0456 4.10713 12.0105 4.06112 11.9917 4.00782L11.5786 2.80323C11.5423 2.68441 11.4639 2.58292 11.3581 2.51776C11.2523 2.45259 11.1264 2.42823 11.0039 2.44922L10.4439 2.54688C10.3222 2.5692 10.2128 2.63491 10.1359 2.7318C10.0591 2.8287 10.02 2.95019 10.0259 3.07373L10.0454 4.35108C10.0458 4.40841 10.0277 4.46433 9.99371 4.51052C9.95975 4.55671 9.91178 4.5907 9.85694 4.60742C9.74513 4.65088 9.50245 4.74366 9.3921 4.78467C9.29444 4.81983 9.188 4.78125 9.10206 4.68213L8.30811 3.70557C8.23527 3.60511 8.12786 3.53513 8.00654 3.50908C7.88522 3.48303 7.75855 3.50276 7.65089 3.56446L7.15968 3.84912C7.0513 3.91133 6.96978 4.01145 6.93083 4.13019C6.89188 4.24893 6.89826 4.37788 6.94874 4.49219L7.4004 5.68067C7.4201 5.73369 7.42269 5.79155 7.4078 5.84611C7.39291 5.90068 7.36129 5.9492 7.31739 5.98487C7.19874 6.08252 7.07716 6.18018 6.95606 6.28858C6.91448 6.32619 6.86196 6.34952 6.80617 6.35514C6.75038 6.36077 6.69425 6.34839 6.646 6.31983L5.56641 5.65137C5.46275 5.58394 5.33804 5.55665 5.21569 5.57463C5.09333 5.59261 4.98175 5.65462 4.90186 5.74903L4.54102 6.18311C4.46087 6.27762 4.4184 6.39838 4.42173 6.52225C4.42506 6.64613 4.47397 6.76443 4.55909 6.8545L5.39307 7.8125C5.43009 7.85567 5.45221 7.90961 5.45617 7.96634C5.46012 8.02306 5.44571 8.07955 5.41505 8.12744C5.33155 8.26026 5.25196 8.39991 5.1797 8.53955C5.15266 8.58979 5.11041 8.63017 5.05901 8.65491C5.00761 8.67964 4.94969 8.68747 4.89356 8.67725L3.64796 8.43653C3.52736 8.40743 3.40026 8.42375 3.29093 8.48238C3.1816 8.54101 3.09768 8.63784 3.05518 8.7544L2.85987 9.28565C2.8167 9.40199 2.81771 9.53012 2.86271 9.64576C2.90771 9.76141 2.99356 9.85652 3.10401 9.91309L4.21632 10.5308C4.26634 10.5584 4.30602 10.6015 4.32936 10.6537C4.3527 10.7058 4.35844 10.7641 4.34571 10.8198L4.33399 10.8818C4.3086 11.0181 4.28516 11.147 4.2627 11.2842C4.25494 11.3401 4.22969 11.3921 4.19058 11.4328C4.15147 11.4735 4.10049 11.5008 4.04493 11.5107L2.79054 11.7134C2.66786 11.7284 2.55487 11.7876 2.47265 11.8799C2.39043 11.9722 2.34462 12.0913 2.34376 12.2148V12.7803C2.34304 12.9043 2.38839 13.0243 2.47102 13.1168C2.55364 13.2094 2.66767 13.268 2.79102 13.2813L4.04493 13.4834C4.10128 13.4926 4.15314 13.5197 4.19275 13.5608C4.23236 13.6019 4.25759 13.6548 4.26466 13.7114C4.28858 13.8657 4.31349 14.0249 4.34766 14.1763C4.35868 14.2313 4.35222 14.2885 4.3292 14.3397C4.30618 14.3909 4.26774 14.4336 4.21925 14.4619L3.10743 15.0806C2.99698 15.1369 2.91108 15.2318 2.86607 15.3473C2.82105 15.4628 2.82006 15.5908 2.86329 15.707L3.0586 16.2393C3.101 16.3558 3.18482 16.4526 3.29408 16.5112C3.40333 16.5699 3.53035 16.5862 3.65089 16.5571L4.89845 16.3154C4.95424 16.3053 5.0118 16.3131 5.06286 16.3378C5.11393 16.3624 5.15586 16.4027 5.18263 16.4526C5.25587 16.5894 5.33448 16.7275 5.417 16.8638C5.44711 16.9123 5.46124 16.969 5.45739 17.0259C5.45353 17.0829 5.43189 17.1372 5.39552 17.1812L4.56544 18.1397C4.48013 18.2295 4.43056 18.3474 4.42607 18.4712C4.42157 18.595 4.46245 18.7162 4.54102 18.812L4.90284 19.2471C4.98159 19.3427 5.09305 19.4056 5.21557 19.4236C5.3381 19.4417 5.46296 19.4135 5.56593 19.3447L6.65821 18.689C6.70664 18.66 6.76311 18.6473 6.8193 18.6528C6.87548 18.6584 6.92839 18.6818 6.97022 18.7197C7.09132 18.8257 7.21436 18.9277 7.33009 19.022C7.37446 19.0571 7.40656 19.1053 7.42174 19.1598C7.43692 19.2143 7.4344 19.2722 7.41456 19.3252L6.96192 20.5166C6.91268 20.6303 6.90691 20.7581 6.94571 20.8757C6.98451 20.9934 7.06517 21.0927 7.17237 21.1548L7.66602 21.4399C7.77325 21.5019 7.89954 21.522 8.02071 21.4966C8.14189 21.4712 8.24944 21.402 8.32276 21.3022L9.13087 20.3086C9.19923 20.2241 9.30665 20.1865 9.38624 20.2188C9.55616 20.2891 9.66993 20.3286 9.87159 20.396C9.92531 20.4136 9.97202 20.4478 10.005 20.4937C10.0379 20.5396 10.0553 20.5949 10.0547 20.6514L10.0352 21.9233C10.0286 22.0476 10.0674 22.17 10.1444 22.2677C10.2214 22.3655 10.3313 22.4319 10.4536 22.4546L11.0127 22.5522C11.1345 22.5735 11.2599 22.5497 11.3655 22.4853C11.4711 22.4209 11.5496 22.3202 11.5864 22.2022L12.0015 20.9927C12.0203 20.9389 12.0558 20.8925 12.1029 20.8604C12.1501 20.8283 12.2062 20.8122 12.2632 20.8145H12.7393C12.7958 20.8132 12.8513 20.8299 12.8977 20.8621C12.9442 20.8943 12.9793 20.9403 12.9981 20.9937L13.4116 22.1982C13.4437 22.3028 13.5084 22.3944 13.5962 22.4595C13.6841 22.5246 13.7905 22.5599 13.8999 22.5601C13.9291 22.5601 13.9582 22.5575 13.9868 22.5522L14.5469 22.4546C14.6685 22.4323 14.778 22.3666 14.8548 22.2697C14.9317 22.1728 14.9708 22.0513 14.9649 21.9277L14.9453 20.6504C14.9449 20.5941 14.9625 20.5392 14.9954 20.4935C15.0283 20.4479 15.0749 20.4139 15.1284 20.3965C15.3159 20.3335 15.4478 20.2827 15.5635 20.2378L15.5928 20.2266C15.7441 20.1743 15.8174 20.2378 15.8599 20.2905L16.6777 21.2979C16.751 21.3975 16.8585 21.4666 16.9796 21.492C17.1006 21.5174 17.2268 21.4973 17.334 21.4356L17.8257 21.1509C17.9332 21.0888 18.0142 20.9892 18.053 20.8712C18.0918 20.7532 18.0858 20.6251 18.0361 20.5112L17.585 19.3228C17.5651 19.2698 17.5623 19.2119 17.5771 19.1573C17.5919 19.1027 17.6236 19.0542 17.6675 19.0186C17.7861 18.9209 17.9077 18.8232 18.0288 18.7148C18.0707 18.6771 18.1235 18.6538 18.1796 18.6484C18.2357 18.6429 18.292 18.6556 18.3403 18.6846L19.4336 19.3389C19.5372 19.4064 19.662 19.4338 19.7844 19.4158C19.9067 19.3978 20.0183 19.3357 20.0982 19.2412L20.4595 18.8066C20.5396 18.7121 20.5821 18.5914 20.5788 18.4675C20.5754 18.3436 20.5265 18.2253 20.4414 18.1353L19.6084 17.1748C19.5714 17.1316 19.5493 17.0777 19.5453 17.021C19.5414 16.9642 19.5558 16.9078 19.5864 16.8599C19.6699 16.7275 19.7495 16.5879 19.8218 16.4478C19.8489 16.3976 19.8912 16.3573 19.9426 16.3326C19.9939 16.3079 20.0518 16.3 20.1079 16.3101L21.3521 16.5527C21.4727 16.5818 21.5998 16.5655 21.7091 16.5069C21.8184 16.4483 21.9023 16.3514 21.9448 16.2349L22.1377 15.7036C22.1808 15.5873 22.1798 15.4593 22.1348 15.3437C22.0898 15.2282 22.004 15.1331 21.8936 15.0767L20.7803 14.458C20.731 14.4301 20.6919 14.3871 20.669 14.3353C20.646 14.2835 20.6404 14.2257 20.6528 14.1704L20.6646 14.1084C20.6899 13.9722 20.7134 13.8433 20.7358 13.7061C20.7436 13.6502 20.7689 13.5981 20.808 13.5574C20.8471 13.5167 20.8981 13.4895 20.9536 13.4795L22.208 13.2773C22.331 13.2625 22.4443 13.2033 22.5269 13.111C22.6094 13.0186 22.6554 12.8993 22.6563 12.7754V12.2036ZM8.86475 16.7935C8.80391 16.8993 8.71882 16.9891 8.61649 17.0557C8.51416 17.1222 8.39751 17.1635 8.27611 17.1762C8.15472 17.1888 8.03205 17.1725 7.91818 17.1286C7.80431 17.0846 7.7025 17.0143 7.6211 16.9233C6.52107 15.707 5.9137 14.1245 5.91749 12.4846C5.92128 10.8446 6.53597 9.26491 7.64161 8.05371C7.72343 7.9628 7.82568 7.89263 7.93994 7.84898C8.0542 7.80534 8.17719 7.78946 8.29878 7.80267C8.42038 7.81588 8.5371 7.85779 8.63932 7.92496C8.74154 7.99212 8.82634 8.08261 8.88673 8.18897L11.1157 12.1123C11.1827 12.2293 11.2179 12.3618 11.2179 12.4966C11.2179 12.6314 11.1827 12.7639 11.1157 12.8809L8.86475 16.7935ZM12.5 19.0972C12.0354 19.0973 11.572 19.0482 11.1177 18.9507C10.9993 18.9242 10.8889 18.8703 10.7953 18.7932C10.7016 18.7161 10.6275 18.618 10.5789 18.507C10.5302 18.3959 10.5084 18.2749 10.5153 18.1538C10.5221 18.0327 10.5573 17.915 10.6182 17.8101L12.8643 13.9038C12.9318 13.7861 13.0293 13.6883 13.1467 13.6203C13.2642 13.5523 13.3975 13.5166 13.5332 13.5166H18.0322C18.1534 13.5164 18.273 13.5448 18.3811 13.5994C18.4893 13.654 18.5831 13.7334 18.6549 13.831C18.7267 13.9286 18.7745 14.0418 18.7944 14.1613C18.8143 14.2809 18.8058 14.4034 18.7695 14.519C17.9155 17.1714 15.4297 19.0972 12.5 19.0972ZM12.8667 11.0942L10.6445 7.18116C10.5843 7.07608 10.5497 6.9583 10.5434 6.83735C10.5371 6.71641 10.5594 6.59567 10.6084 6.48492C10.6574 6.37417 10.7317 6.2765 10.8255 6.19981C10.9192 6.12312 11.0297 6.06956 11.148 6.04346C11.5925 5.94977 12.0457 5.90264 12.5 5.90284C15.4297 5.90284 17.9155 7.82862 18.7681 10.4824C18.8044 10.5981 18.8129 10.7206 18.793 10.8402C18.7731 10.9597 18.7253 11.0729 18.6535 11.1705C18.5817 11.2681 18.4879 11.3475 18.3797 11.4021C18.2715 11.4567 18.152 11.4851 18.0308 11.4849H13.5386C13.402 11.4851 13.2678 11.4491 13.1498 11.3805C13.0317 11.3118 12.934 11.2131 12.8667 11.0942Z" fill="#FDFFFC"/>
</svg>
