<svg width="30" height="30" viewBox="0 0 30 30" fill="none" xmlns="http://www.w3.org/2000/svg">
<g clip-path="url(#clip0_422_145)">
<path d="M11.25 2.5L8.9625 5H5C3.625 5 2.5 6.125 2.5 7.5V22.5C2.5 23.875 3.625 25 5 25H25C26.375 25 27.5 23.875 27.5 22.5V7.5C27.5 6.125 26.375 5 25 5H21.0375L18.75 2.5H11.25ZM15 21.25C11.55 21.25 8.75 18.45 8.75 15C8.75 11.55 11.55 8.75 15 8.75C18.45 8.75 21.25 11.55 21.25 15C21.25 18.45 18.45 21.25 15 21.25Z" fill="#BFD0B5"/>
<path d="M15 10.625C12.5877 10.625 10.625 12.5877 10.625 15C10.625 17.4123 12.5877 19.375 15 19.375C17.4123 19.375 19.375 17.4123 19.375 15C19.375 12.5877 17.4123 10.625 15 10.625ZM17.0192 15.3365H15.3365V17.0192H14.6635V15.3365H12.9808V14.6635H14.6635V12.9808H15.3365V14.6635H17.0192V15.3365Z" fill="#BFD0B5"/>
</g>
<defs>
<clipPath id="clip0_422_145">
<rect width="30" height="30" fill="white"/>
</clipPath>
</defs>
</svg>
