<svg width="25" height="26" viewBox="0 0 25 26" fill="none" xmlns="http://www.w3.org/2000/svg">
<path d="M12.4834 5.57812C8.67772 5.57812 4.77391 7.82481 1.70067 12.3182C1.61295 12.4479 1.56488 12.6011 1.56253 12.7587C1.56018 12.9162 1.60367 13.0709 1.68749 13.2032C4.04881 16.9734 7.90038 19.9219 12.4834 19.9219C17.0166 19.9219 20.9473 16.9645 23.313 13.1858C23.3948 13.0561 23.4384 12.905 23.4384 12.7507C23.4384 12.5965 23.3948 12.4454 23.313 12.3157C20.9419 8.58035 16.9824 5.57812 12.4834 5.57812Z" stroke="#BFD0B5" stroke-width="1.5625" stroke-linecap="round" stroke-linejoin="round"/>
<path d="M12.5 16.7344C14.6574 16.7344 16.4062 14.9505 16.4062 12.75C16.4062 10.5495 14.6574 8.76562 12.5 8.76562C10.3426 8.76562 8.59375 10.5495 8.59375 12.75C8.59375 14.9505 10.3426 16.7344 12.5 16.7344Z" stroke="#BFD0B5" stroke-width="1.5625" stroke-miterlimit="10"/>
</svg>
