<svg width="25" height="25" viewBox="0 0 25 25" fill="none" xmlns="http://www.w3.org/2000/svg">
<path d="M21.0937 21.875C20.9911 21.8752 20.8895 21.855 20.7947 21.8157C20.6999 21.7764 20.6139 21.7187 20.5415 21.646L3.354 4.45848C3.21367 4.31078 3.1366 4.1141 3.1392 3.91038C3.14181 3.70666 3.2239 3.51202 3.36796 3.36795C3.51203 3.22389 3.70667 3.1418 3.91039 3.13919C4.11411 3.13659 4.31079 3.21366 4.45849 3.35399L21.646 20.5415C21.7552 20.6507 21.8295 20.7899 21.8596 20.9414C21.8898 21.0929 21.8743 21.2499 21.8152 21.3927C21.7561 21.5354 21.656 21.6574 21.5276 21.7432C21.3992 21.8291 21.2482 21.8749 21.0937 21.875ZM12.4834 18.75C10.4575 18.75 8.5039 18.1504 6.67676 16.9678C5.01318 15.8935 3.51562 14.355 2.3457 12.5244V12.5205C3.31933 11.1255 4.38574 9.94579 5.53125 8.99462C5.54161 8.98595 5.55006 8.97523 5.55607 8.96314C5.56208 8.95104 5.56551 8.93783 5.56616 8.92434C5.5668 8.91085 5.56464 8.89737 5.5598 8.88476C5.55497 8.87214 5.54758 8.86067 5.53808 8.85106L4.56543 7.87987C4.54814 7.86244 4.52493 7.85216 4.50041 7.85108C4.47589 7.84999 4.45186 7.85818 4.4331 7.87401C3.21631 8.8994 2.08691 10.1572 1.06006 11.6299C0.883388 11.8834 0.78609 12.1838 0.780526 12.4928C0.774962 12.8018 0.861382 13.1055 1.02881 13.3652C2.31836 15.3833 3.97802 17.083 5.82763 18.2798C7.91015 19.6289 10.1514 20.3125 12.4834 20.3125C13.7422 20.3086 14.992 20.1011 16.1846 19.6982C16.2003 19.6929 16.2144 19.6836 16.2256 19.6713C16.2367 19.659 16.2446 19.6441 16.2483 19.6279C16.2521 19.6117 16.2517 19.5948 16.2471 19.5788C16.2425 19.5629 16.2339 19.5483 16.2222 19.5366L15.1685 18.4829C15.1442 18.4592 15.1142 18.4423 15.0814 18.4337C15.0486 18.4252 15.0142 18.4253 14.9814 18.4341C14.1654 18.6442 13.3261 18.7504 12.4834 18.75ZM23.9668 11.6504C22.6748 9.65233 20.9985 7.95506 19.1196 6.74169C17.041 5.39794 14.7461 4.68749 12.4834 4.68749C11.238 4.6897 10.0018 4.90147 8.82666 5.31395C8.811 5.3194 8.79699 5.32874 8.78594 5.3411C8.77489 5.35346 8.76717 5.36843 8.76351 5.3846C8.75985 5.40077 8.76036 5.41761 8.765 5.43352C8.76964 5.44944 8.77826 5.46391 8.79004 5.47557L9.84228 6.52782C9.86678 6.5519 9.89719 6.56909 9.93045 6.57766C9.96372 6.58624 9.99865 6.58589 10.0317 6.57665C10.831 6.36042 11.6554 6.25059 12.4834 6.24999C14.4702 6.24999 16.418 6.85692 18.272 8.05663C19.9668 9.15038 21.4819 10.6875 22.6548 12.5C22.6557 12.5011 22.6561 12.5025 22.6561 12.5039C22.6561 12.5053 22.6557 12.5067 22.6548 12.5078C21.8034 13.8481 20.7469 15.0464 19.5239 16.0591C19.5135 16.0677 19.5049 16.0784 19.4988 16.0905C19.4927 16.1027 19.4892 16.1159 19.4885 16.1295C19.4878 16.143 19.49 16.1566 19.4948 16.1693C19.4996 16.1819 19.5071 16.1935 19.5166 16.2031L20.4883 17.1743C20.5055 17.1917 20.5286 17.2019 20.553 17.2031C20.5774 17.2043 20.6013 17.1963 20.6201 17.1807C21.9258 16.0813 23.056 14.7891 23.9717 13.3486C24.1335 13.0948 24.2191 12.7998 24.2182 12.4988C24.2174 12.1977 24.1301 11.9033 23.9668 11.6504Z" fill="#BFD0B5"/>
<path d="M12.5 7.8125C12.1489 7.81231 11.7989 7.85162 11.4566 7.92969C11.4393 7.93328 11.4233 7.94149 11.4103 7.95345C11.3973 7.96541 11.3878 7.98067 11.3828 7.9976C11.3778 8.01453 11.3774 8.03251 11.3818 8.04961C11.3862 8.06672 11.3952 8.08231 11.4077 8.09473L16.9053 13.5908C16.9177 13.6034 16.9333 13.6123 16.9504 13.6167C16.9675 13.6211 16.9855 13.6208 17.0024 13.6158C17.0193 13.6108 17.0346 13.6013 17.0466 13.5883C17.0585 13.5753 17.0667 13.5593 17.0703 13.542C17.2268 12.8555 17.2267 12.1425 17.0699 11.4561C16.9131 10.7697 16.6036 10.1274 16.1646 9.57692C15.7255 9.02648 15.168 8.58202 14.5336 8.27656C13.8992 7.9711 13.2041 7.81249 12.5 7.8125ZM8.09474 11.4092C8.08232 11.3966 8.06673 11.3877 8.04962 11.3833C8.03252 11.3789 8.01454 11.3792 7.99761 11.3842C7.98068 11.3892 7.96542 11.3987 7.95346 11.4117C7.9415 11.4247 7.93329 11.4407 7.9297 11.458C7.75262 12.2316 7.77486 13.0375 7.99432 13.8002C8.21378 14.5628 8.62329 15.2573 9.18446 15.8185C9.74563 16.3797 10.4401 16.7892 11.2028 17.0086C11.9654 17.2281 12.7713 17.2503 13.5449 17.0732C13.5622 17.0697 13.5782 17.0614 13.5912 17.0495C13.6042 17.0375 13.6137 17.0223 13.6187 17.0053C13.6237 16.9884 13.6241 16.9704 13.6197 16.9533C13.6153 16.9362 13.6063 16.9206 13.5938 16.9082L8.09474 11.4092Z" fill="#BFD0B5"/>
</svg>
