<svg width="24" height="24" viewBox="0 0 24 24" fill="none" xmlns="http://www.w3.org/2000/svg">
<g clip-path="url(#clip0_371_117)">
<path d="M10.0819 16.6443C9.85265 17.7693 9.57702 19.282 9.57702 20.077C9.57497 20.3957 9.63624 20.7117 9.75727 21.0066C9.87831 21.3015 10.0567 21.5695 10.2821 21.7949C10.5075 22.0203 10.7754 22.1987 11.0703 22.3197C11.3652 22.4407 11.6812 22.502 12 22.4999C13.3383 22.4999 14.423 21.3895 14.423 20.077C14.423 19.3035 14.1487 17.7824 13.9181 16.6443M10.0819 7.35557C9.85171 6.22776 9.57702 4.72307 9.57702 3.92292C9.57497 3.60415 9.63624 3.28816 9.75727 2.99326C9.87831 2.69837 10.0567 2.43044 10.2821 2.20504C10.5075 1.97963 10.7754 1.80124 11.0703 1.6802C11.3652 1.55916 11.6812 1.49789 12 1.49995C13.3383 1.49995 14.423 2.61042 14.423 3.92292C14.423 4.69823 14.1487 6.21651 13.9181 7.35557M16.6444 13.9181C17.7722 14.1482 19.2769 14.4229 20.077 14.4229C20.3958 14.425 20.7118 14.3637 21.0067 14.2427C21.3016 14.1216 21.5695 13.9432 21.7949 13.7178C22.0203 13.4924 22.1987 13.2245 22.3197 12.9296C22.4408 12.6347 22.502 12.3187 22.5 11.9999C22.5 10.6617 21.3895 9.57698 20.077 9.57698C19.3036 9.57698 17.7825 9.8512 16.6444 10.0818M7.35561 13.9185C6.23061 14.1478 4.7189 14.4229 3.92296 14.4229C3.6042 14.425 3.2882 14.3637 2.9933 14.2427C2.69841 14.1216 2.43048 13.9432 2.20508 13.7178C1.97968 13.4924 1.80128 13.2245 1.68024 12.9296C1.5592 12.6347 1.49793 12.3187 1.49999 11.9999C1.49999 10.6617 2.61046 9.57698 3.92296 9.57698C4.6964 9.57698 6.21749 9.8512 7.35561 10.0818" stroke="#BFD0B5" stroke-width="1.5" stroke-miterlimit="10" stroke-linecap="round"/>
<path d="M13.9181 16.6444C14.5533 17.6044 15.4322 18.8592 15.998 19.4245C16.2219 19.6514 16.4886 19.8316 16.7827 19.9546C17.0769 20.0775 17.3925 20.1409 17.7112 20.1409C18.03 20.1409 18.3456 20.0775 18.6397 19.9546C18.9339 19.8316 19.2006 19.6514 19.4245 19.4245C20.3709 18.4781 20.3527 16.9261 19.4245 15.998C18.878 15.4509 17.6119 14.5603 16.6444 13.9181M7.35562 10.0819C6.39562 9.44673 5.14077 8.56782 4.57546 8.00204C4.34856 7.77812 4.16839 7.51137 4.04542 7.21726C3.92245 6.92315 3.85913 6.60754 3.85913 6.28876C3.85913 5.96997 3.92245 5.65437 4.04542 5.36026C4.16839 5.06614 4.34856 4.79939 4.57546 4.57548C5.52187 3.62907 7.0739 3.64735 8.00203 4.57548C8.54906 5.12204 9.43968 6.38813 10.0819 7.35563M16.6444 10.0819C17.6044 9.44673 18.8592 8.56782 19.4245 8.00204C19.6514 7.77812 19.8316 7.51137 19.9546 7.21726C20.0775 6.92315 20.1409 6.60754 20.1409 6.28876C20.1409 5.96997 20.0775 5.65437 19.9546 5.36026C19.8316 5.06614 19.6514 4.79939 19.4245 4.57548C18.4781 3.62907 16.9261 3.64735 15.998 4.57548C15.45 5.12344 14.5608 6.3872 13.9181 7.35563M10.0819 16.6444C9.44765 17.602 8.56406 18.8625 8.00203 19.4245C7.77811 19.6514 7.51136 19.8316 7.21725 19.9546C6.92313 20.0775 6.60753 20.1409 6.28874 20.1409C5.96996 20.1409 5.65435 20.0775 5.36024 19.9546C5.06613 19.8316 4.79938 19.6514 4.57546 19.4245C3.62906 18.4781 3.64734 16.9261 4.57546 15.998C5.11968 15.4538 6.38952 14.5599 7.35562 13.9181" stroke="#BFD0B5" stroke-width="1.5" stroke-miterlimit="10" stroke-linecap="round"/>
<path d="M12 9C13.6569 9 15 10.3431 15 12C15 13.6569 13.6569 15 12 15C10.3431 15 9 13.6569 9 12C9 10.3431 10.3431 9 12 9Z" stroke="#BFD0B5" stroke-width="1.5" stroke-miterlimit="10" stroke-linecap="round"/>
</g>
<defs>
<clipPath id="clip0_371_117">
<rect width="24" height="24" fill="white" transform="matrix(1 0 0 -1 0 24)"/>
</clipPath>
</defs>
</svg>
