<svg width="30" height="30" viewBox="0 0 30 30" fill="none" xmlns="http://www.w3.org/2000/svg">
<path d="M15 4.6875C12.9604 4.6875 10.9666 5.29232 9.27069 6.42547C7.5748 7.55862 6.25303 9.16921 5.4725 11.0536C4.69197 12.9379 4.48775 15.0114 4.88566 17.0119C5.28357 19.0123 6.26574 20.8498 7.70797 22.292C9.1502 23.7343 10.9877 24.7164 12.9881 25.1143C14.9886 25.5123 17.0621 25.308 18.9464 24.5275C20.8308 23.747 22.4414 22.4252 23.5745 20.7293C24.7077 19.0334 25.3125 17.0396 25.3125 15C25.3125 12.265 24.226 9.64193 22.292 7.70796C20.3581 5.77399 17.735 4.6875 15 4.6875Z" stroke="#BFD0B5" stroke-width="1.75" stroke-miterlimit="10"/>
<path d="M11.7188 11.8529C11.7188 11.8529 11.768 10.8275 12.8654 9.94449C13.5164 9.42007 14.2969 9.26832 15 9.25777C15.6404 9.24957 16.2123 9.35562 16.5545 9.51851C17.1404 9.79742 18.2812 10.4783 18.2812 11.9261C18.2812 13.4496 17.2852 14.1416 16.1502 14.9027C15.0152 15.6638 14.707 16.49 14.707 17.3437" stroke="#BFD0B5" stroke-width="1.53125" stroke-miterlimit="10" stroke-linecap="round"/>
<path d="M14.6484 21.5625C15.2956 21.5625 15.8203 21.0378 15.8203 20.3906C15.8203 19.7434 15.2956 19.2188 14.6484 19.2188C14.0012 19.2188 13.4766 19.7434 13.4766 20.3906C13.4766 21.0378 14.0012 21.5625 14.6484 21.5625Z" fill="#BFD0B5"/>
</svg>
