<svg width="24" height="24" viewBox="0 0 24 24" fill="none" xmlns="http://www.w3.org/2000/svg">
<path d="M14.3533 6.08487L8.84661 2.56213C8.62756 2.45273 8.38556 2.39718 8.14073 2.4001C7.89589 2.40303 7.65529 2.46435 7.43892 2.57896L2.00911 6.22187C1.88558 6.28731 1.78222 6.38516 1.71013 6.50493C1.63805 6.62469 1.59996 6.76183 1.59998 6.90161V21.1214C1.59996 21.254 1.63426 21.3844 1.69953 21.4999C1.76481 21.6154 1.85884 21.712 1.97249 21.7804C2.08615 21.8488 2.21556 21.8867 2.34817 21.8903C2.48078 21.8939 2.61208 21.8632 2.7293 21.8011L7.43219 18.7346C7.65032 18.619 7.89306 18.5577 8.13991 18.5556C8.38676 18.5536 8.63047 18.6111 8.85046 18.723L14.2283 22.2323C14.4464 22.3434 14.6878 22.4009 14.9326 22.4C15.1773 22.3991 15.4183 22.3398 15.6356 22.227L21.1851 18.5764C21.3101 18.5115 21.4149 18.4136 21.4881 18.2932C21.5613 18.1728 21.6 18.0347 21.6 17.8938V3.67789C21.6 3.54524 21.5657 3.41485 21.5004 3.29937C21.4351 3.18389 21.3411 3.08726 21.2275 3.01885C21.1138 2.95044 20.9844 2.91258 20.8518 2.90896C20.7192 2.90533 20.5879 2.93605 20.4706 2.99815L15.7591 6.06804C15.543 6.18233 15.3027 6.24348 15.0583 6.2464C14.8138 6.24933 14.5721 6.19395 14.3533 6.08487Z" stroke="#BFD0B5" stroke-width="2" stroke-linecap="round" stroke-linejoin="round"/>
<path d="M18.4 12.8C17.5154 12.8 16.8 13.426 16.8 14.2C16.8 15.25 18.4 16.8 18.4 16.8C18.4 16.8 20 15.25 20 14.2C20 13.426 19.2846 12.8 18.4 12.8ZM18.4 14.7C18.0846 14.7 17.8286 14.476 17.8286 14.2C17.8286 13.924 18.0846 13.7 18.4 13.7C18.7154 13.7 18.9714 13.924 18.9714 14.2C18.9714 14.476 18.7154 14.7 18.4 14.7Z" fill="#BFD0B5"/>
<path d="M5.59998 8.80001C8.29723 7.76279 12.0513 11.5392 18.4 17.6" stroke="#BFD0B5" stroke-width="1.25" stroke-linejoin="bevel" stroke-dasharray="1.09 1.09"/>
<circle cx="18.3826" cy="17.5826" r="0.632609" fill="#BFD0B5" stroke="#BFD0B5" stroke-width="0.3"/>
<circle cx="5.5826" cy="8.78261" r="0.632609" fill="#BFD0B5" stroke="#BFD0B5" stroke-width="0.3"/>
</svg>
