<svg width="25" height="25" viewBox="0 0 25 25" fill="none" xmlns="http://www.w3.org/2000/svg">
<path d="M18.75 10.9375V19.9219C18.75 20.1784 18.6995 20.4323 18.6013 20.6693C18.5032 20.9063 18.3593 21.1216 18.1779 21.3029C17.9966 21.4843 17.7813 21.6282 17.5443 21.7263C17.3073 21.8245 17.0534 21.875 16.7969 21.875H5.07812C4.56012 21.875 4.06334 21.6692 3.69706 21.3029C3.33078 20.9367 3.125 20.4399 3.125 19.9219V8.20312C3.125 7.68512 3.33078 7.18834 3.69706 6.82206C4.06334 6.45578 4.56012 6.25 5.07812 6.25H13.2559" stroke="#FDFFFC" stroke-width="1.5625" stroke-linecap="round" stroke-linejoin="round"/>
<path d="M22.458 2.60011C22.3867 2.52171 22.3002 2.4586 22.2037 2.41457C22.1073 2.37055 22.0029 2.34653 21.897 2.34398C21.791 2.34142 21.6856 2.36038 21.5872 2.3997C21.4887 2.43903 21.3993 2.4979 21.3242 2.57277L20.7202 3.17384C20.647 3.24709 20.6059 3.34641 20.6059 3.44997C20.6059 3.55352 20.647 3.65284 20.7202 3.72609L21.2739 4.27882C21.3102 4.31529 21.3534 4.34422 21.4009 4.36397C21.4484 4.38371 21.4993 4.39388 21.5508 4.39388C21.6022 4.39388 21.6532 4.38371 21.7007 4.36397C21.7482 4.34422 21.7913 4.31529 21.8276 4.27882L22.4165 3.69289C22.7144 3.39552 22.7422 2.91115 22.458 2.60011ZM19.499 4.39455L10.6846 13.1934C10.6311 13.2466 10.5923 13.3127 10.5718 13.3853L10.1641 14.5996C10.1543 14.6326 10.1536 14.6675 10.1621 14.7009C10.1705 14.7342 10.1878 14.7646 10.2121 14.7889C10.2364 14.8132 10.2668 14.8305 10.3001 14.8389C10.3334 14.8474 10.3684 14.8467 10.4014 14.8369L11.6147 14.4292C11.6873 14.4087 11.7534 14.3699 11.8066 14.3164L20.6055 5.50099C20.6869 5.41872 20.7325 5.30765 20.7325 5.19191C20.7325 5.07617 20.6869 4.9651 20.6055 4.88283L20.1196 4.39455C20.0372 4.3124 19.9257 4.26627 19.8093 4.26627C19.693 4.26627 19.5814 4.3124 19.499 4.39455Z" fill="#FDFFFC"/>
</svg>
