<svg width="31" height="30" viewBox="0 0 31 30" fill="none" xmlns="http://www.w3.org/2000/svg">
<path d="M23.4961 28.125C23.2987 28.1257 23.1062 28.0642 22.9459 27.9492L15.4101 22.4859L7.87439 27.9492C7.71339 28.066 7.51943 28.1285 7.32055 28.1278C7.12167 28.1271 6.92817 28.0631 6.76802 27.9452C6.60788 27.8272 6.48939 27.6614 6.42969 27.4717C6.36999 27.282 6.37217 27.0782 6.43591 26.8898L9.37498 18.1845L1.75779 12.9609C1.5928 12.8479 1.46827 12.6851 1.4024 12.4962C1.33654 12.3074 1.33278 12.1025 1.39169 11.9113C1.45059 11.7202 1.56907 11.5529 1.72982 11.434C1.89056 11.315 2.08514 11.2505 2.28513 11.25H11.6824L14.5183 2.52244C14.5794 2.33402 14.6986 2.16978 14.8588 2.0533C15.0191 1.93682 15.2121 1.87408 15.4101 1.87408C15.6082 1.87408 15.8012 1.93682 15.9614 2.0533C16.1216 2.16978 16.2408 2.33402 16.3019 2.52244L19.1379 11.2529H28.5351C28.7354 11.2528 28.9304 11.3168 29.0916 11.4356C29.2528 11.5543 29.3718 11.7216 29.4311 11.9129C29.4903 12.1041 29.4868 12.3094 29.421 12.4985C29.3552 12.6876 29.2306 12.8507 29.0654 12.9638L21.4453 18.1845L24.3826 26.8875C24.4302 27.0284 24.4436 27.1786 24.4216 27.3257C24.3997 27.4728 24.3431 27.6125 24.2565 27.7334C24.1699 27.8543 24.0558 27.9529 23.9235 28.021C23.7913 28.0891 23.6448 28.1247 23.4961 28.125Z" fill="#9DB88D"/>
</svg>
