<svg width="26" height="27" viewBox="0 0 26 27" fill="none" xmlns="http://www.w3.org/2000/svg">
<path d="M9.25 0.600006C4.43231 0.600006 0.5 4.68961 0.5 9.70001C0.5 14.7104 4.43231 18.8 9.25 18.8C11.435 18.8 13.4313 17.9524 14.9678 16.5656L15.5 17.1191V18.8L23 26.6L25.5 24L18 16.2H16.3838L15.8516 15.6465C17.185 14.0485 18 11.9724 18 9.70001C18 4.68961 14.0677 0.600006 9.25 0.600006ZM9.25 3.20001C12.7166 3.20001 15.5 6.09476 15.5 9.70001C15.5 13.3053 12.7166 16.2 9.25 16.2C5.78341 16.2 3 13.3053 3 9.70001C3 6.09476 5.78341 3.20001 9.25 3.20001Z" fill="#BFD0B5"/>
</svg>
