<svg width="20" height="20" viewBox="0 0 20 20" fill="none" xmlns="http://www.w3.org/2000/svg">
<g clip-path="url(#clip0_365_274)">
<path d="M17.5 7.17969V2.375C17.5007 2.14528 17.4561 1.91768 17.3686 1.70527C17.2811 1.49285 17.1526 1.2998 16.9903 1.1372C16.828 0.974602 16.6352 0.845652 16.423 0.757755C16.2107 0.669857 15.9832 0.624743 15.7535 0.625001H10.9516C10.6367 0.625649 10.3348 0.750429 10.1113 0.972267L0.511329 10.5695C0.183913 10.898 6.10352e-05 11.3429 6.10352e-05 11.8066C6.10352e-05 12.2704 0.183913 12.7153 0.511329 13.0438L5.08164 17.6141C5.40999 17.9416 5.85481 18.1255 6.31856 18.1255C6.7823 18.1255 7.22712 17.9416 7.55547 17.6141L17.1527 8.01992C17.3746 7.79652 17.4994 7.49457 17.5 7.17969ZM13.75 5.625C13.5028 5.625 13.2611 5.55169 13.0555 5.41434C12.85 5.27699 12.6898 5.08176 12.5952 4.85336C12.5005 4.62495 12.4758 4.37361 12.524 4.13114C12.5723 3.88866 12.6913 3.66593 12.8661 3.49112C13.0409 3.3163 13.2637 3.19725 13.5061 3.14902C13.7486 3.10079 13.9999 3.12554 14.2284 3.22015C14.4568 3.31476 14.652 3.47498 14.7893 3.68054C14.9267 3.8861 15 4.12777 15 4.375C15 4.70652 14.8683 5.02446 14.6339 5.25888C14.3995 5.4933 14.0815 5.625 13.75 5.625Z" fill="#BFD0B5"/>
<path d="M19.375 2.5C19.2093 2.5 19.0503 2.56585 18.9331 2.68306C18.8159 2.80027 18.75 2.95924 18.75 3.125V8.10039L8.5426 18.3082C8.48212 18.3657 8.43376 18.4346 8.40036 18.5111C8.36696 18.5875 8.3492 18.6699 8.34813 18.7533C8.34707 18.8367 8.36271 18.9195 8.39414 18.9968C8.42557 19.0741 8.47215 19.1443 8.53114 19.2033C8.59013 19.2622 8.66033 19.3088 8.73761 19.3403C8.81488 19.3717 8.89767 19.3873 8.98108 19.3863C9.0645 19.3852 9.14686 19.3674 9.2233 19.334C9.29975 19.3006 9.36874 19.2523 9.4262 19.1918L19.6606 8.95742C19.7694 8.84805 19.8555 8.71815 19.9138 8.57525C19.972 8.43236 20.0014 8.27931 20 8.125V3.125C20 2.95924 19.9342 2.80027 19.817 2.68306C19.6998 2.56585 19.5408 2.5 19.375 2.5Z" fill="#BFD0B5"/>
</g>
<defs>
<clipPath id="clip0_365_274">
<rect width="20" height="20" fill="white"/>
</clipPath>
</defs>
</svg>
