<svg width="22" height="22" viewBox="0 0 22 22" fill="none" xmlns="http://www.w3.org/2000/svg">
<path d="M2.75 6.875L4.02789 19.0141C4.05454 19.2675 4.1741 19.5021 4.36349 19.6727C4.55289 19.8432 4.79871 19.9375 5.05355 19.9375H16.9464C17.2013 19.9375 17.4471 19.8432 17.6365 19.6727C17.8259 19.5021 17.9455 19.2675 17.9721 19.0141L19.25 6.875H2.75ZM13.4062 16.219L11 13.8127L8.59375 16.219L7.49977 15.125L9.90602 12.7188L7.49977 10.3125L8.59375 9.21852L11 11.6248L13.4062 9.21852L14.5002 10.3125L12.094 12.7188L14.5002 15.125L13.4062 16.219Z" fill="#932F6D"/>
<path d="M20.1094 2.0625H1.89062C1.60585 2.0625 1.375 2.29335 1.375 2.57813V4.98438C1.375 5.26915 1.60585 5.5 1.89062 5.5H20.1094C20.3941 5.5 20.625 5.26915 20.625 4.98438V2.57813C20.625 2.29335 20.3941 2.0625 20.1094 2.0625Z" fill="#932F6D"/>
</svg>
